<svg width="141" height="35" viewBox="0 0 141 35" fill="none" xmlns="http://www.w3.org/2000/svg">
<path d="M52.425 30.7362L50.6976 26.2975H43.6533L41.9708 30.7362H39.6152L45.9416 14.8421H48.4766L54.803 30.7362H52.425ZM47.153 17.1287L44.4385 24.2575H49.9124L47.153 17.1287ZM58.8048 34.9956H56.7184V19.9533H58.7599V21.6347C59.074 21.0668 59.5451 20.6035 60.1733 20.2448C60.8014 19.8861 61.5343 19.7068 62.3718 19.7068C63.9272 19.7068 65.1387 20.2373 66.0061 21.2984C66.8885 22.3595 67.3297 23.7046 67.3297 25.3336C67.3297 26.9775 66.8735 28.3376 65.9612 29.4136C65.0639 30.4896 63.845 31.0277 62.3045 31.0277C61.5118 31.0277 60.8089 30.8633 60.1957 30.5345C59.5825 30.2057 59.1189 29.7872 58.8048 29.2791V34.9956ZM65.176 25.3336C65.176 24.2426 64.8844 23.3459 64.3011 22.6435C63.7328 21.9261 62.9626 21.5674 61.9904 21.5674C61.0332 21.5674 60.2555 21.9261 59.6573 22.6435C59.074 23.3459 58.7824 24.2426 58.7824 25.3336C58.7824 26.4545 59.074 27.3736 59.6573 28.091C60.2555 28.7934 61.0332 29.1446 61.9904 29.1446C62.9476 29.1446 63.7178 28.7934 64.3011 28.091C64.8844 27.3736 65.176 26.4545 65.176 25.3336ZM72.1031 34.9956H70.0168V19.9533H72.0582V21.6347C72.3723 21.0668 72.8434 20.6035 73.4716 20.2448C74.0997 19.8861 74.8326 19.7068 75.6701 19.7068C77.2255 19.7068 78.437 20.2373 79.3044 21.2984C80.1868 22.3595 80.628 23.7046 80.628 25.3336C80.628 26.9775 80.1719 28.3376 79.2595 29.4136C78.3622 30.4896 77.1433 31.0277 75.6028 31.0277C74.8101 31.0277 74.1072 30.8633 73.494 30.5345C72.8808 30.2057 72.4172 29.7872 72.1031 29.2791V34.9956ZM78.4743 25.3336C78.4743 24.2426 78.1827 23.3459 77.5994 22.6435C77.0311 21.9261 76.2609 21.5674 75.2887 21.5674C74.3316 21.5674 73.5538 21.9261 72.9556 22.6435C72.3723 23.3459 72.0807 24.2426 72.0807 25.3336C72.0807 26.4545 72.3723 27.3736 72.9556 28.091C73.5538 28.7934 74.3316 29.1446 75.2887 29.1446C76.2459 29.1446 77.0161 28.7934 77.5994 28.091C78.1827 27.3736 78.4743 26.4545 78.4743 25.3336ZM99.2885 18.4514L97.3143 19.1463C97.2096 18.4588 96.8731 17.8386 96.3047 17.2856C95.7364 16.7177 94.9512 16.4338 93.9492 16.4338C93.0668 16.4338 92.3339 16.6878 91.7507 17.196C91.1668 17.7041 90.8752 18.3318 90.8752 19.0791C90.8752 19.6619 91.0472 20.1551 91.3912 20.5586C91.7507 20.9621 92.2592 21.2386 92.9172 21.3881L95.2952 21.9037C96.6113 22.1876 97.6283 22.7257 98.3462 23.5178C99.0641 24.2949 99.4231 25.2439 99.4231 26.3648C99.4231 27.6501 98.9146 28.756 97.8976 29.6826C96.8805 30.6092 95.5569 31.0725 93.9268 31.0725C92.147 31.0725 90.7481 30.6092 89.7311 29.6826C88.729 28.7411 88.1457 27.6277 87.9812 26.3424L90.09 25.6699C90.1797 26.6263 90.5536 27.4334 91.2117 28.091C91.8703 28.7485 92.7677 29.0773 93.9043 29.0773C94.9512 29.0773 95.7589 28.8382 96.3272 28.36C96.8955 27.8817 97.1797 27.2765 97.1797 26.5441C97.1797 25.9463 96.9778 25.4307 96.574 24.9973C96.1701 24.549 95.5794 24.2426 94.8017 24.0782L92.5358 23.585C91.3538 23.3309 90.4116 22.8303 89.7086 22.083C89.0057 21.3358 88.6542 20.3868 88.6542 19.236C88.6542 17.9806 89.1627 16.8821 90.1797 15.9406C91.2117 14.9841 92.4536 14.5059 93.9043 14.5059C95.5345 14.5059 96.7833 14.9019 97.6508 15.694C98.5182 16.4861 99.0641 17.4052 99.2885 18.4514ZM104.83 16.5459V19.9533H107.163V21.8589H104.83V27.4633C104.83 27.9714 104.942 28.345 105.166 28.5841C105.405 28.8233 105.794 28.9428 106.333 28.9428C106.647 28.9428 106.923 28.9129 107.163 28.8532V30.6466C106.804 30.7811 106.325 30.8483 105.727 30.8483C104.8 30.8483 104.067 30.5793 103.528 30.0413C102.99 29.5033 102.721 28.7485 102.721 27.7771V21.8589H100.657V19.9533H101.24C101.794 19.9533 102.205 19.8039 102.474 19.505C102.758 19.1911 102.9 18.7876 102.9 18.2944V16.5459H104.83ZM112.089 28.1806C112.747 28.8532 113.547 29.1894 114.489 29.1894C115.431 29.1894 116.224 28.8532 116.867 28.1806C117.525 27.4932 117.854 26.5441 117.854 25.3336C117.854 24.138 117.525 23.2039 116.867 22.5314C116.224 21.8439 115.431 21.5002 114.489 21.5002C113.547 21.5002 112.747 21.8439 112.089 22.5314C111.446 23.2039 111.124 24.138 111.124 25.3336C111.124 26.5441 111.446 27.4932 112.089 28.1806ZM110.518 21.2536C111.565 20.1626 112.889 19.6171 114.489 19.6171C116.089 19.6171 117.405 20.1626 118.437 21.2536C119.484 22.3296 120.008 23.6896 120.008 25.3336C120.008 26.9925 119.492 28.3674 118.46 29.4584C117.428 30.5345 116.104 31.0725 114.489 31.0725C112.874 31.0725 111.55 30.5345 110.518 29.4584C109.486 28.3674 108.97 26.9925 108.97 25.3336C108.97 23.6896 109.486 22.3296 110.518 21.2536ZM128.696 19.8413V22.083C128.382 22.0382 128.075 22.0158 127.776 22.0158C125.802 22.0158 124.815 23.1217 124.815 25.3336V30.7362H122.706V19.9533H124.77V21.8364C125.428 20.4615 126.505 19.774 128.001 19.774C128.24 19.774 128.472 19.7964 128.696 19.8413ZM132.202 24.2351H138.102C138.072 23.4281 137.803 22.7705 137.295 22.2624C136.786 21.7393 136.068 21.4777 135.141 21.4777C134.304 21.4777 133.616 21.7542 133.077 22.3072C132.539 22.8452 132.247 23.4879 132.202 24.2351ZM138.416 27.0373L140.234 27.665C139.92 28.6663 139.336 29.4883 138.484 30.131C137.631 30.7587 136.599 31.0725 135.388 31.0725C133.877 31.0725 132.591 30.5569 131.529 29.5257C130.482 28.4795 129.959 27.0747 129.959 25.3112C129.959 23.6672 130.467 22.3072 131.484 21.2312C132.501 20.1551 133.713 19.6171 135.119 19.6171C136.749 19.6171 138.02 20.1327 138.932 21.1639C139.845 22.1802 140.301 23.5476 140.301 25.2663C140.301 25.5353 140.286 25.7595 140.256 25.9389H132.135C132.15 26.8953 132.464 27.68 133.077 28.2927C133.705 28.9055 134.476 29.2118 135.388 29.2118C136.928 29.2118 137.938 28.487 138.416 27.0373Z" fill="white"/>
<path opacity="0.6" d="M41.2624 5.08987V1.22123H42.211C43.2024 1.22123 44.0228 1.84465 44.0228 3.15982C44.0228 4.47499 43.1938 5.08987 42.2025 5.08987H41.2624ZM42.2452 6.183C43.9716 6.183 45.245 5.07279 45.245 3.15982C45.245 1.24685 43.9801 0.128101 42.2538 0.128101H40.083V6.183H42.2452ZM48.1989 3.15128C48.1989 1.78487 49.156 1.13583 50.0876 1.13583C51.0277 1.13583 51.9849 1.78487 51.9849 3.15128C51.9849 4.51769 51.0277 5.16674 50.0876 5.16674C49.156 5.16674 48.1989 4.51769 48.1989 3.15128ZM46.9767 3.15982C46.9767 5.10695 48.4467 6.3111 50.0876 6.3111C51.737 6.3111 53.207 5.10695 53.207 3.15982C53.207 1.20415 51.737 0 50.0876 0C48.4467 0 46.9767 1.20415 46.9767 3.15982ZM60.7807 4.31273L59.4304 0.128101H58.2082L56.8665 4.29565L55.7555 0.128101H54.5077L56.1913 6.183H57.422L58.8065 1.87027L60.191 6.183H61.4045L63.0796 0.128101H61.8746L60.7807 4.31273ZM70.1161 6.183V0.128101H68.9367V4.13339L66.4155 0.128101H64.9456V6.183H66.125V1.88735L68.8769 6.183H70.1161ZM76.4455 6.183V5.05571H73.7449V0.128101H72.5655V6.183H76.4455ZM79.0789 3.15128C79.0789 1.78487 80.036 1.13583 80.9676 1.13583C81.9077 1.13583 82.8649 1.78487 82.8649 3.15128C82.8649 4.51769 81.9077 5.16674 80.9676 5.16674C80.036 5.16674 79.0789 4.51769 79.0789 3.15128ZM77.8567 3.15982C77.8567 5.10695 79.3267 6.3111 80.9676 6.3111C82.617 6.3111 84.087 5.10695 84.087 3.15982C84.087 1.20415 82.617 0 80.9676 0C79.3267 0 77.8567 1.20415 77.8567 3.15982ZM89.9964 6.183H91.2783L88.9708 0.128101H87.6034L85.2789 6.183H86.5266L87.0308 4.79951H89.4922L89.9964 6.183ZM88.2615 1.43473L89.099 3.72347H87.424L88.2615 1.43473ZM94.3005 5.08987V1.22123H95.2491C96.2405 1.22123 97.061 1.84465 97.061 3.15982C97.061 4.47499 96.232 5.08987 95.2406 5.08987H94.3005ZM95.2833 6.183C97.0097 6.183 98.2831 5.07279 98.2831 3.15982C98.2831 1.24685 97.0182 0.128101 95.2919 0.128101H93.1211V6.183H95.2833ZM104.417 3.15128C104.417 1.78487 105.374 1.13583 106.306 1.13583C107.246 1.13583 108.203 1.78487 108.203 3.15128C108.203 4.51769 107.246 5.16674 106.306 5.16674C105.374 5.16674 104.417 4.51769 104.417 3.15128ZM103.195 3.15982C103.195 5.10695 104.665 6.3111 106.306 6.3111C107.955 6.3111 109.425 5.10695 109.425 3.15982C109.425 1.20415 107.955 0 106.306 0C104.665 0 103.195 1.20415 103.195 3.15982ZM116.686 6.183V0.128101H115.507V4.13339L112.986 0.128101H111.516V6.183H112.695V1.88735L115.447 6.183H116.686ZM126.777 1.24685V0.128101H121.761V1.24685H123.675V6.183H124.863V1.24685H126.777ZM133.684 6.183V0.128101H132.496V2.56202H129.855V0.128101H128.676V6.183H129.855V3.67222H132.496V6.183H133.684ZM139.931 6.183V5.07279H137.316V3.67222H139.683V2.6218H137.316V1.23831H139.931V0.128101H136.137V6.183H139.931Z" fill="white"/>
<path d="M25.3685 24.3489C24.6748 25.884 24.3436 26.5693 23.4503 27.9257C22.2058 29.8198 20.4497 32.179 18.2737 32.199C16.3409 32.217 15.8442 30.942 13.2201 30.9574C10.5962 30.9727 10.0494 32.2217 8.1164 32.2037C5.94042 32.1844 4.27796 30.0539 3.03202 28.1585C-0.450586 22.861 -0.814443 16.6448 1.33345 13.3402C2.85981 10.9903 5.26879 9.61726 7.53291 9.61726C9.83837 9.61726 11.2879 10.8802 13.1948 10.8802C15.0442 10.8802 16.1706 9.61523 18.8366 9.61523C20.8517 9.61523 22.9869 10.7115 24.5086 12.6055C19.523 15.335 20.3336 22.4467 25.3685 24.3489Z" fill="white"/>
<path d="M17.0953 6.30047C18.0641 5.0581 18.7985 3.30547 18.5314 1.5127C16.9491 1.62083 15.0996 2.62696 14.0193 3.93796C13.0385 5.12759 12.2286 6.89229 12.5437 8.60756C14.2697 8.66168 16.0571 7.63079 17.0953 6.30047Z" fill="white"/>
</svg>
