<svg width="56" height="56" viewBox="0 0 56 56" fill="none" xmlns="http://www.w3.org/2000/svg">
<rect width="56" height="56" rx="8" fill="#FFB2A3"/>
<path d="M23.1668 12C22.0002 11.6667 20.6668 11.5 19.5002 11.5C18.6668 11.5 18.0002 11.6667 17.3335 12.3333C16.8335 12.8333 16.5002 13.6667 16.5002 14.5V15H16.0002C13.5002 15 11.3335 17 11.3335 19.6667V36.8333C11.3335 39.3333 13.5002 41.5 16.0002 41.5H28.3335V15C26.8335 13.6667 25.0002 12.6667 23.1668 12ZM16.0002 39C14.8335 39 13.8335 38 13.8335 36.8333V19.6667C13.8335 18.5 14.8335 17.5 16.0002 17.5H16.5002V33.5C16.5002 35.1667 17.8335 36.3333 19.3335 36.5C20.5002 36.5 21.5002 36.8333 22.5002 37.1667C23.6668 37.6667 24.6668 38.3333 25.3335 39H16.0002ZM40.0002 15H30.0002V41.5H40.0002C42.5002 41.5 44.6668 39.3333 44.6668 36.8333V19.6667C44.6668 17 42.5002 15 40.0002 15ZM38.3335 36.3333H33.1668C32.5002 36.3333 31.8335 35.8333 31.8335 35C31.8335 34.3333 32.3335 33.6667 33.1668 33.6667H38.3335C39.0002 33.6667 39.6668 34.1667 39.6668 35C39.5002 35.8333 39.0002 36.3333 38.3335 36.3333ZM38.3335 29.5H33.1668C32.5002 29.5 31.8335 29 31.8335 28.1667C31.8335 27.5 32.3335 26.8333 33.1668 26.8333H38.3335C39.0002 26.8333 39.6668 27.3333 39.6668 28.1667C39.5002 28.8333 39.0002 29.5 38.3335 29.5ZM38.3335 22.5H33.1668C32.5002 22.5 31.8335 22 31.8335 21.1667C31.8335 20.5 32.3335 19.8333 33.1668 19.8333H38.3335C39.0002 19.8333 39.6668 20.3333 39.6668 21.1667C39.5002 22 39.0002 22.5 38.3335 22.5Z" fill="white"/>
</svg>
