<svg width="26" height="29" viewBox="0 0 26 29" fill="none" xmlns="http://www.w3.org/2000/svg">
<path d="M4.21186 28.0639C3.57891 28.4726 2.81868 28.5961 2.10547 28.4278L14.6375 15.9092L18.6991 19.9665L4.21186 28.0639Z" fill="white"/>
<path d="M0.550669 27.4104C0.201224 26.9463 0 26.3763 0 25.7734V3.47394C0 2.87101 0.201224 2.30107 0.550669 1.83691L13.351 14.6236L0.550669 27.4104Z" fill="white"/>
<path d="M24.0003 17.004L20.3499 19.0442L15.9248 14.6238L20.3502 10.2031L24.0009 12.2436C24.8755 12.733 25.3976 13.6228 25.3976 14.6238C25.3976 15.6248 24.8755 16.5144 24.0003 17.004Z" fill="white"/>
<path d="M14.6376 13.3383L2.10645 0.820392C2.31184 0.772034 2.52097 0.746094 2.73 0.746094C3.24679 0.746094 3.76166 0.892876 4.21209 1.18356L18.6994 9.28092L14.6376 13.3383Z" fill="white"/>
</svg>
