<svg width="56" height="56" viewBox="0 0 56 56" fill="none" xmlns="http://www.w3.org/2000/svg">
<rect width="56" height="56" rx="8" fill="#FFB2A3"/>
<path fill-rule="evenodd" clip-rule="evenodd" d="M14 14C12.8954 14 12 14.8954 12 16C12 17.1046 12.8954 18 14 18V34C14 36.2091 15.7909 38 18 38H23.1716L20.5858 40.5858C19.8047 41.3668 19.8047 42.6332 20.5858 43.4142C21.3668 44.1953 22.6332 44.1953 23.4142 43.4142L28 38.8284L32.5858 43.4142C33.3668 44.1953 34.6332 44.1953 35.4142 43.4142C36.1953 42.6332 36.1953 41.3668 35.4142 40.5858L32.8284 38H38C40.2091 38 42 36.2091 42 34V18C43.1046 18 44 17.1046 44 16C44 14.8954 43.1046 14 42 14H14ZM37.4142 23.4142C38.1953 22.6332 38.1953 21.3668 37.4142 20.5858C36.6332 19.8047 35.3668 19.8047 34.5858 20.5858L28 27.1716L25.4142 24.5858C24.6332 23.8047 23.3668 23.8047 22.5858 24.5858L18.5858 28.5858C17.8047 29.3668 17.8047 30.6332 18.5858 31.4142C19.3668 32.1953 20.6332 32.1953 21.4142 31.4142L24 28.8284L26.5858 31.4142C27.3668 32.1953 28.6332 32.1953 29.4142 31.4142L37.4142 23.4142Z" fill="white"/>
</svg>
