<svg width="56" height="56" viewBox="0 0 56 56" fill="none" xmlns="http://www.w3.org/2000/svg">
<rect width="56" height="56" rx="8" fill="#FFB2A3"/>
<path fill-rule="evenodd" clip-rule="evenodd" d="M30.9784 14.3419C30.2204 11.2194 25.7796 11.2194 25.0216 14.3419C24.5319 16.359 22.2209 17.3162 20.4483 16.2362C17.7044 14.5642 14.5642 17.7044 16.2362 20.4483C17.3162 22.2209 16.359 24.5319 14.3419 25.0216C11.2194 25.7796 11.2194 30.2204 14.3419 30.9784C16.359 31.4681 17.3162 33.7791 16.2362 35.5517C14.5642 38.2956 17.7044 41.4358 20.4483 39.7638C22.2209 38.6838 24.5319 39.641 25.0216 41.6581C25.7796 44.7806 30.2204 44.7806 30.9784 41.6581C31.4681 39.641 33.7791 38.6838 35.5517 39.7638C38.2956 41.4358 41.4358 38.2956 39.7638 35.5517C38.6838 33.7791 39.641 31.4681 41.6581 30.9784C44.7806 30.2204 44.7806 25.7796 41.6581 25.0216C39.641 24.5319 38.6838 22.2209 39.7638 20.4483C41.4358 17.7044 38.2956 14.5642 35.5517 16.2362C33.7791 17.3162 31.4681 16.359 30.9784 14.3419ZM28 34C31.3137 34 34 31.3137 34 28C34 24.6863 31.3137 22 28 22C24.6863 22 22 24.6863 22 28C22 31.3137 24.6863 34 28 34Z" fill="white"/>
</svg>
