<svg width="100" height="82" viewBox="0 0 100 82" fill="none" xmlns="http://www.w3.org/2000/svg">
<path d="M80.411 37.1579C79.6198 37.4171 79.5032 37.2889 79.3839 36.5419C79.1063 34.7356 78.8064 32.9182 78.3845 31.1454C77.6715 28.2088 76.5825 25.3774 75.1448 22.7218C73.7247 20.0352 71.9853 17.5314 69.9646 15.2655C68.9483 14.0828 67.8588 12.9657 66.7027 11.9205C65.2207 10.65 63.6723 9.45997 62.0638 8.35543C59.6371 6.70527 57.0171 5.36181 54.263 4.35547C51.8296 3.4452 49.3123 2.77947 46.7481 2.36804C44.2709 1.96646 41.7603 1.81055 39.2526 1.90254C36.2453 1.99931 33.2594 2.44738 30.3553 3.23771C27.1202 4.12716 24.011 5.42631 21.1025 7.10387C18.8899 8.38215 16.808 9.87597 14.8869 11.5638C12.5721 13.6231 10.4963 15.9384 8.69894 18.4654C6.41904 21.6481 4.65132 25.1707 3.46045 28.9043C2.54684 31.7187 1.95906 34.6294 1.70873 37.5788C1.49215 40.0563 1.5033 42.5486 1.74204 45.024C2.10793 48.7126 2.99888 52.3294 4.38766 55.764C6.37868 60.6893 9.3355 65.1626 13.0824 68.9178C15.523 71.3758 18.2834 73.4911 21.2885 75.2063C24.2359 76.9287 27.4147 78.2167 30.7273 79.0306C32.6241 79.5028 34.5518 79.84 36.496 80.0397C38.6461 80.2376 40.8065 80.299 42.9643 80.2236C45.4989 80.1103 48.013 79.7129 50.4597 79.039C54.0142 78.1214 57.4158 76.6864 60.5564 74.7798C61.6141 74.1331 62.6468 73.4363 63.6601 72.7227C64.2153 72.338 64.7539 72.4913 65.3257 72.5638C61.5679 75.6628 57.2445 77.9966 52.5973 79.4348C43.2225 82.3226 33.9364 81.9435 24.9252 78.0745C16.3009 74.387 9.2393 67.7768 4.972 59.3966C0.704695 51.0165 -0.497549 41.3982 1.57493 32.2191C3.6474 23.0401 8.86309 14.8827 16.3124 9.1696C23.7617 3.4565 32.9719 0.550228 42.3369 0.957602C63.116 1.91648 78.6926 18.2285 80.411 37.1579Z" fill="#9B6A63"/>
<path d="M24 61.9997V40.4932H37.9876V43.759H27.896V49.5977H37.263V52.8636H27.896V58.7338H38.0716V61.9997H24Z" fill="#9B6A63"/>
<path d="M45.8583 40.4932V61.9997H41.9623V40.4932H45.8583Z" fill="#9B6A63"/>
<path d="M54.6032 61.9997L48.5335 40.4932H52.7235L56.5984 56.2975H56.7979L60.9354 40.4932H64.7474L68.8953 56.308H69.0844L72.9593 40.4932H77.1493L71.0796 61.9997H67.2361L62.9306 46.9094H62.7626L58.4466 61.9997H54.6032Z" fill="#9B6A63"/>
<path d="M80.5911 61.9997H76.4326L84.004 40.4932H88.8135L96.3954 61.9997H92.2369L86.4928 44.9037H86.3247L80.5911 61.9997ZM80.7276 53.5672H92.0689V56.6965H80.7276V53.5672Z" fill="#9B6A63"/>
<path d="M49.8459 67.1082H49.049C49.0263 66.9775 48.9844 66.8618 48.9233 66.7609C48.8622 66.6586 48.7862 66.572 48.6953 66.501C48.6044 66.43 48.5007 66.3767 48.3842 66.3412C48.2692 66.3042 48.1449 66.2858 48.0114 66.2858C47.7741 66.2858 47.5639 66.3454 47.3807 66.4648C47.1974 66.5827 47.054 66.7559 46.9503 66.9846C46.8466 67.2119 46.7947 67.4896 46.7947 67.8177C46.7947 68.1515 46.8466 68.4328 46.9503 68.6615C47.0554 68.8888 47.1989 69.0606 47.3807 69.1771C47.5639 69.2922 47.7734 69.3497 48.0092 69.3497C48.1399 69.3497 48.2621 69.3327 48.3757 69.2986C48.4908 69.2631 48.5938 69.2112 48.6847 69.143C48.777 69.0748 48.8544 68.991 48.9169 68.8916C48.9808 68.7922 49.0249 68.6785 49.049 68.5507L49.8459 68.555C49.8161 68.7623 49.7514 68.9569 49.652 69.1388C49.554 69.3206 49.4254 69.4811 49.2663 69.6203C49.1072 69.7581 48.9212 69.866 48.7081 69.9442C48.495 70.0209 48.2585 70.0592 47.9986 70.0592C47.6151 70.0592 47.2727 69.9704 46.9716 69.7929C46.6705 69.6153 46.4332 69.3589 46.2599 69.0237C46.0866 68.6885 46 68.2865 46 67.8177C46 67.3476 46.0874 66.9456 46.2621 66.6118C46.4368 66.2765 46.6747 66.0202 46.9759 65.8426C47.277 65.665 47.6179 65.5763 47.9986 65.5763C48.2415 65.5763 48.4673 65.6104 48.6761 65.6785C48.8849 65.7467 49.071 65.8469 49.2344 65.979C49.3977 66.1096 49.532 66.2702 49.6371 66.4605C49.7436 66.6494 49.8132 66.8653 49.8459 67.1082Z" fill="#9B6A63"/>
<path d="M51.8429 69.1025H52.6078C52.6149 69.2247 52.6696 69.3192 52.7718 69.3859C52.8741 69.4527 53.0069 69.4861 53.1703 69.4861C53.3365 69.4861 53.4764 69.4498 53.59 69.3774C53.7051 69.3035 53.7626 69.192 53.7626 69.0429C53.7626 68.9548 53.7406 68.8774 53.6966 68.8106C53.6525 68.7425 53.5907 68.6899 53.5112 68.653C53.4316 68.616 53.3379 68.5976 53.2299 68.5976H52.7292V68.05H53.2299C53.3904 68.05 53.5119 68.0131 53.5943 67.9392C53.6781 67.8653 53.72 67.7723 53.72 67.6601C53.72 67.5393 53.676 67.4413 53.5879 67.366C53.5012 67.2907 53.3812 67.2531 53.2278 67.2531C53.0744 67.2531 52.9466 67.2879 52.8443 67.3575C52.7434 67.4271 52.6909 67.5166 52.6866 67.626H51.926C51.9288 67.4356 51.9856 67.2702 52.0964 67.1295C52.2086 66.9889 52.3592 66.8795 52.5481 66.8014C52.7385 66.7233 52.9529 66.6842 53.1916 66.6842C53.4473 66.6842 53.6681 66.7226 53.8542 66.7993C54.0403 66.876 54.1838 66.9832 54.2846 67.121C54.3855 67.2574 54.4359 67.4179 54.4359 67.6025C54.4359 67.7801 54.3805 67.9271 54.2697 68.0436C54.1589 68.1586 54.0098 68.241 53.8223 68.2907V68.3248C53.9515 68.3319 54.068 68.3689 54.1717 68.4356C54.2754 68.501 54.3578 68.5898 54.4189 68.702C54.4799 68.8142 54.5105 68.9442 54.5105 69.0919C54.5105 69.2922 54.4529 69.4655 54.3379 69.6118C54.2228 69.7567 54.0645 69.8682 53.8627 69.9463C53.6625 70.0244 53.4331 70.0635 53.1745 70.0635C52.9231 70.0635 52.698 70.0258 52.4991 69.9506C52.3017 69.8738 52.1447 69.7638 52.0282 69.6203C51.9118 69.4768 51.85 69.3042 51.8429 69.1025Z" fill="#9B6A63"/>
<path d="M56.0595 70.0656C55.8521 70.0656 55.6653 70.0287 55.4991 69.9548C55.3343 69.8795 55.2037 69.7687 55.1071 69.6224C55.0119 69.4761 54.9643 69.2957 54.9643 69.0812C54.9643 68.8966 54.9984 68.7439 55.0666 68.6231C55.1348 68.5024 55.2278 68.4058 55.3457 68.3334C55.4636 68.2609 55.5964 68.2062 55.7441 68.1693C55.8933 68.1309 56.0474 68.1032 56.2065 68.0862C56.3983 68.0663 56.5538 68.0486 56.6731 68.0329C56.7924 68.0159 56.8791 67.9903 56.9331 67.9562C56.9885 67.9207 57.0162 67.866 57.0162 67.7922V67.7794C57.0162 67.6189 56.9686 67.4946 56.8734 67.4065C56.7782 67.3184 56.6412 67.2744 56.4622 67.2744C56.2733 67.2744 56.1234 67.3156 56.0126 67.398C55.9032 67.4804 55.8294 67.5777 55.791 67.6899L55.0708 67.5876C55.1277 67.3888 55.2214 67.2226 55.3521 67.089C55.4828 66.9541 55.6426 66.8532 55.8315 66.7865C56.0204 66.7183 56.2292 66.6842 56.4579 66.6842C56.6156 66.6842 56.7725 66.7027 56.9288 66.7396C57.085 66.7765 57.2278 66.8376 57.3571 66.9229C57.4863 67.0067 57.59 67.121 57.6681 67.2659C57.7477 67.4108 57.7875 67.5919 57.7875 67.8092V69.9996H57.046V69.55H57.0204C56.9735 69.6409 56.9075 69.7261 56.8223 69.8057C56.7385 69.8838 56.6326 69.947 56.5048 69.9953C56.3784 70.0422 56.2299 70.0656 56.0595 70.0656ZM56.2598 69.4988C56.4146 69.4988 56.5488 69.4683 56.6625 69.4072C56.7761 69.3447 56.8635 69.2623 56.9245 69.1601C56.987 69.0578 57.0183 68.9463 57.0183 68.8256V68.4399C56.9941 68.4598 56.9529 68.4782 56.8947 68.4953C56.8379 68.5123 56.774 68.5273 56.7029 68.54C56.6319 68.5528 56.5616 68.5642 56.492 68.5741C56.4224 68.5841 56.362 68.5926 56.3109 68.5997C56.1958 68.6153 56.0929 68.6409 56.002 68.6764C55.911 68.7119 55.8393 68.7616 55.7868 68.8256C55.7342 68.8881 55.7079 68.969 55.7079 69.0684C55.7079 69.2105 55.7598 69.3177 55.8635 69.3902C55.9672 69.4626 56.0993 69.4988 56.2598 69.4988Z" fill="#9B6A63"/>
<path d="M61.1859 65.5166L61.4544 66.0152C61.3592 66.0976 61.2527 66.1572 61.1348 66.1942C61.0169 66.2311 60.8784 66.2552 60.7193 66.2666C60.5616 66.2765 60.3741 66.2836 60.1568 66.2879C59.9125 66.2936 59.7129 66.3398 59.5581 66.4264C59.4032 66.5131 59.2846 66.6444 59.2022 66.8206C59.1199 66.9953 59.0659 67.2183 59.0403 67.4896H59.0765C59.1788 67.2893 59.3223 67.1366 59.5069 67.0315C59.6916 66.9264 59.9082 66.8738 60.1568 66.8738C60.4281 66.8738 60.6674 66.9349 60.8748 67.0571C61.0836 67.1778 61.2463 67.3532 61.3627 67.5834C61.4806 67.8135 61.5396 68.0919 61.5396 68.4186C61.5396 68.7552 61.4764 69.0471 61.35 69.2943C61.2235 69.54 61.0439 69.7297 60.8109 69.8632C60.5794 69.9967 60.3045 70.0635 59.9863 70.0635C59.6696 70.0635 59.394 69.9946 59.1596 69.8568C58.9267 69.7176 58.7463 69.5123 58.6184 69.241C58.492 68.9683 58.4288 68.6324 58.4288 68.2332V67.9392C58.4288 67.1693 58.5723 66.5947 58.8592 66.2155C59.1461 65.8362 59.5716 65.643 60.1355 65.6359C60.3031 65.6331 60.4529 65.6324 60.585 65.6338C60.7186 65.6352 60.835 65.6288 60.9345 65.6146C61.0339 65.6004 61.1177 65.5677 61.1859 65.5166ZM59.9906 69.4456C60.1483 69.4456 60.2846 69.4051 60.3997 69.3241C60.5147 69.2417 60.6028 69.1253 60.6639 68.9747C60.7264 68.8241 60.7576 68.6459 60.7576 68.4399C60.7576 68.2368 60.7264 68.0642 60.6639 67.9221C60.6014 67.7787 60.5126 67.6693 60.3975 67.594C60.2825 67.5187 60.1454 67.4811 59.9863 67.4811C59.867 67.4811 59.7598 67.5024 59.6646 67.545C59.5694 67.5876 59.4885 67.6501 59.4217 67.7325C59.3549 67.8149 59.3038 67.915 59.2683 68.0329C59.2328 68.1508 59.2136 68.2865 59.2108 68.4399C59.2108 68.7481 59.2804 68.9932 59.4196 69.175C59.5588 69.3554 59.7491 69.4456 59.9906 69.4456Z" fill="#9B6A63"/>
<path d="M63.6234 70.0635C63.3038 70.0635 63.0268 69.9932 62.7924 69.8525C62.5581 69.7119 62.3762 69.5152 62.247 69.2623C62.1191 69.0095 62.0552 68.714 62.0552 68.376C62.0552 68.0379 62.1191 67.7417 62.247 67.4875C62.3762 67.2332 62.5581 67.0358 62.7924 66.8952C63.0268 66.7545 63.3038 66.6842 63.6234 66.6842C63.943 66.6842 64.22 66.7545 64.4544 66.8952C64.6887 67.0358 64.8699 67.2332 64.9977 67.4875C65.127 67.7417 65.1916 68.0379 65.1916 68.376C65.1916 68.714 65.127 69.0095 64.9977 69.2623C64.8699 69.5152 64.6887 69.7119 64.4544 69.8525C64.22 69.9932 63.943 70.0635 63.6234 70.0635ZM63.6277 69.4456C63.801 69.4456 63.9458 69.398 64.0623 69.3028C64.1788 69.2062 64.2654 69.077 64.3223 68.915C64.3805 68.7531 64.4096 68.5727 64.4096 68.3738C64.4096 68.1736 64.3805 67.9925 64.3223 67.8305C64.2654 67.6672 64.1788 67.5372 64.0623 67.4406C63.9458 67.344 63.801 67.2957 63.6277 67.2957C63.4501 67.2957 63.3024 67.344 63.1845 67.4406C63.068 67.5372 62.9806 67.6672 62.9224 67.8305C62.8656 67.9925 62.8372 68.1736 62.8372 68.3738C62.8372 68.5727 62.8656 68.7531 62.9224 68.915C62.9806 69.077 63.068 69.2062 63.1845 69.3028C63.3024 69.398 63.4501 69.4456 63.6277 69.4456Z" fill="#9B6A63"/>
<path d="M65.4856 67.3596V66.7268H68.3493V67.3596H67.2903V69.9996H66.5446V67.3596H65.4856Z" fill="#9B6A63"/>
<path d="M70.2562 70.0635C69.9366 70.0635 69.6596 69.9932 69.4252 69.8525C69.1909 69.7119 69.0091 69.5152 68.8798 69.2623C68.752 69.0095 68.688 68.714 68.688 68.376C68.688 68.0379 68.752 67.7417 68.8798 67.4875C69.0091 67.2332 69.1909 67.0358 69.4252 66.8952C69.6596 66.7545 69.9366 66.6842 70.2562 66.6842C70.5758 66.6842 70.8528 66.7545 71.0872 66.8952C71.3216 67.0358 71.5027 67.2332 71.6305 67.4875C71.7598 67.7417 71.8244 68.0379 71.8244 68.376C71.8244 68.714 71.7598 69.0095 71.6305 69.2623C71.5027 69.5152 71.3216 69.7119 71.0872 69.8525C70.8528 69.9932 70.5758 70.0635 70.2562 70.0635ZM70.2605 69.4456C70.4338 69.4456 70.5787 69.398 70.6951 69.3028C70.8116 69.2062 70.8983 69.077 70.9551 68.915C71.0133 68.7531 71.0424 68.5727 71.0424 68.3738C71.0424 68.1736 71.0133 67.9925 70.9551 67.8305C70.8983 67.6672 70.8116 67.5372 70.6951 67.4406C70.5787 67.344 70.4338 67.2957 70.2605 67.2957C70.0829 67.2957 69.9352 67.344 69.8173 67.4406C69.7008 67.5372 69.6135 67.6672 69.5552 67.8305C69.4984 67.9925 69.47 68.1736 69.47 68.3738C69.47 68.5727 69.4984 68.7531 69.5552 68.915C69.6135 69.077 69.7008 69.2062 69.8173 69.3028C69.9352 69.398 70.0829 69.4456 70.2605 69.4456Z" fill="#9B6A63"/>
<path d="M73.2227 68.9555L74.533 66.7268H75.3256V69.9996H74.5799V67.7687L73.2738 69.9996H72.479V66.7268H73.2227V68.9555ZM74.3221 65.6018H74.8995C74.8995 65.8504 74.8093 66.0521 74.6289 66.2069C74.4499 66.3604 74.207 66.4371 73.9002 66.4371C73.5962 66.4371 73.354 66.3604 73.1737 66.2069C72.9947 66.0521 72.9059 65.8504 72.9073 65.6018H73.4805C73.4805 65.7041 73.5117 65.7957 73.5742 65.8767C73.6381 65.9562 73.7468 65.996 73.9002 65.996C74.0508 65.996 74.158 65.9562 74.2219 65.8767C74.2873 65.7971 74.3207 65.7055 74.3221 65.6018Z" fill="#9B6A63"/>
<path d="M79.0336 70.0635C78.714 70.0635 78.437 69.9932 78.2026 69.8525C77.9682 69.7119 77.7864 69.5152 77.6571 69.2623C77.5293 69.0095 77.4654 68.714 77.4654 68.376C77.4654 68.0379 77.5293 67.7417 77.6571 67.4875C77.7864 67.2332 77.9682 67.0358 78.2026 66.8952C78.437 66.7545 78.714 66.6842 79.0336 66.6842C79.3532 66.6842 79.6301 66.7545 79.8645 66.8952C80.0989 67.0358 80.28 67.2332 80.4078 67.4875C80.5371 67.7417 80.6017 68.0379 80.6017 68.376C80.6017 68.714 80.5371 69.0095 80.4078 69.2623C80.28 69.5152 80.0989 69.7119 79.8645 69.8525C79.6301 69.9932 79.3532 70.0635 79.0336 70.0635ZM79.0378 69.4456C79.2111 69.4456 79.356 69.398 79.4725 69.3028C79.589 69.2062 79.6756 69.077 79.7324 68.915C79.7907 68.7531 79.8198 68.5727 79.8198 68.3738C79.8198 68.1736 79.7907 67.9925 79.7324 67.8305C79.6756 67.6672 79.589 67.5372 79.4725 67.4406C79.356 67.344 79.2111 67.2957 79.0378 67.2957C78.8603 67.2957 78.7125 67.344 78.5946 67.4406C78.4782 67.5372 78.3908 67.6672 78.3326 67.8305C78.2757 67.9925 78.2473 68.1736 78.2473 68.3738C78.2473 68.5727 78.2757 68.7531 78.3326 68.915C78.3908 69.077 78.4782 69.2062 78.5946 69.3028C78.7125 69.398 78.8603 69.4456 79.0378 69.4456Z" fill="#9B6A63"/>
<path d="M82.5657 67.3596V66.7268H85.4293V67.3596H84.3704V69.9996H83.6246V67.3596H82.5657Z" fill="#9B6A63"/>
<path d="M87.3576 70.0635C87.0295 70.0635 86.7461 69.9953 86.5075 69.8589C86.2702 69.7211 86.0877 69.5265 85.9599 69.2751C85.832 69.0223 85.7681 68.7247 85.7681 68.3824C85.7681 68.0457 85.832 67.7503 85.9599 67.496C86.0891 67.2403 86.2695 67.0415 86.5011 66.8994C86.7326 66.7559 87.0046 66.6842 87.3171 66.6842C87.5188 66.6842 87.7092 66.7169 87.8881 66.7822C88.0685 66.8461 88.2276 66.9456 88.3654 67.0805C88.5046 67.2155 88.614 67.3873 88.6935 67.5961C88.7731 67.8035 88.8129 68.0507 88.8129 68.3376V68.5741H86.1303V68.0542H88.0735C88.0721 67.9065 88.0401 67.7751 87.9776 67.6601C87.9151 67.5436 87.8278 67.452 87.7156 67.3852C87.6048 67.3184 87.4755 67.2851 87.3278 67.2851C87.1701 67.2851 87.0316 67.3234 86.9123 67.4001C86.793 67.4754 86.6999 67.5748 86.6332 67.6984C86.5678 67.8206 86.5344 67.9548 86.533 68.1011V68.555C86.533 68.7453 86.5678 68.9086 86.6374 69.045C86.707 69.18 86.8043 69.2836 86.9293 69.3561C87.0543 69.4271 87.2006 69.4626 87.3683 69.4626C87.4805 69.4626 87.582 69.447 87.6729 69.4157C87.7638 69.3831 87.8427 69.3355 87.9094 69.273C87.9762 69.2105 88.0266 69.1331 88.0607 69.0407L88.7809 69.1217C88.7354 69.3121 88.6488 69.4782 88.521 69.6203C88.3945 69.7609 88.2326 69.8703 88.0352 69.9484C87.8377 70.0251 87.6119 70.0635 87.3576 70.0635Z" fill="#9B6A63"/>
<path d="M92.0882 65.5166L92.3567 66.0152C92.2615 66.0976 92.155 66.1572 92.0371 66.1942C91.9192 66.2311 91.7807 66.2552 91.6216 66.2666C91.464 66.2765 91.2765 66.2836 91.0591 66.2879C90.8148 66.2936 90.6152 66.3398 90.4604 66.4264C90.3056 66.5131 90.187 66.6444 90.1046 66.8206C90.0222 66.9953 89.9682 67.2183 89.9426 67.4896H89.9789C90.0811 67.2893 90.2246 67.1366 90.4093 67.0315C90.5939 66.9264 90.8105 66.8738 91.0591 66.8738C91.3304 66.8738 91.5698 66.9349 91.7772 67.0571C91.986 67.1778 92.1486 67.3532 92.2651 67.5834C92.383 67.8135 92.4419 68.0919 92.4419 68.4186C92.4419 68.7552 92.3787 69.0471 92.2523 69.2943C92.1259 69.54 91.9462 69.7297 91.7132 69.8632C91.4817 69.9967 91.2069 70.0635 90.8887 70.0635C90.5719 70.0635 90.2963 69.9946 90.062 69.8568C89.829 69.7176 89.6486 69.5123 89.5208 69.241C89.3944 68.9683 89.3311 68.6324 89.3311 68.2332V67.9392C89.3311 67.1693 89.4746 66.5947 89.7615 66.2155C90.0485 65.8362 90.4739 65.643 91.0378 65.6359C91.2054 65.6331 91.3553 65.6324 91.4874 65.6338C91.6209 65.6352 91.7374 65.6288 91.8368 65.6146C91.9363 65.6004 92.0201 65.5677 92.0882 65.5166ZM90.8929 69.4456C91.0506 69.4456 91.187 69.4051 91.302 69.3241C91.4171 69.2417 91.5051 69.1253 91.5662 68.9747C91.6287 68.8241 91.66 68.6459 91.66 68.4399C91.66 68.2368 91.6287 68.0642 91.5662 67.9221C91.5037 67.7787 91.4149 67.6693 91.2999 67.594C91.1848 67.5187 91.0478 67.4811 90.8887 67.4811C90.7694 67.4811 90.6621 67.5024 90.5669 67.545C90.4718 67.5876 90.3908 67.6501 90.324 67.7325C90.2573 67.8149 90.2061 67.915 90.1706 68.0329C90.1351 68.1508 90.1159 68.2865 90.1131 68.4399C90.1131 68.7481 90.1827 68.9932 90.3219 69.175C90.4611 69.3554 90.6515 69.4456 90.8929 69.4456Z" fill="#9B6A63"/>
<path d="M94.5471 70.0635C94.2189 70.0635 93.9355 69.9953 93.6969 69.8589C93.4597 69.7211 93.2772 69.5265 93.1493 69.2751C93.0215 69.0223 92.9576 68.7247 92.9576 68.3824C92.9576 68.0457 93.0215 67.7503 93.1493 67.496C93.2786 67.2403 93.459 67.0415 93.6905 66.8994C93.9221 66.7559 94.1941 66.6842 94.5066 66.6842C94.7083 66.6842 94.8986 66.7169 95.0776 66.7822C95.258 66.8461 95.4171 66.9456 95.5549 67.0805C95.6941 67.2155 95.8034 67.3873 95.883 67.5961C95.9625 67.8035 96.0023 68.0507 96.0023 68.3376V68.5741H93.3198V68.0542H95.263C95.2615 67.9065 95.2296 67.7751 95.1671 67.6601C95.1046 67.5436 95.0172 67.452 94.905 67.3852C94.7942 67.3184 94.665 67.2851 94.5172 67.2851C94.3596 67.2851 94.2211 67.3234 94.1017 67.4001C93.9824 67.4754 93.8894 67.5748 93.8226 67.6984C93.7573 67.8206 93.7239 67.9548 93.7225 68.1011V68.555C93.7225 68.7453 93.7573 68.9086 93.8269 69.045C93.8965 69.18 93.9938 69.2836 94.1188 69.3561C94.2438 69.4271 94.3901 69.4626 94.5577 69.4626C94.6699 69.4626 94.7715 69.447 94.8624 69.4157C94.9533 69.3831 95.0321 69.3355 95.0989 69.273C95.1657 69.2105 95.2161 69.1331 95.2502 69.0407L95.9703 69.1217C95.9249 69.3121 95.8382 69.4782 95.7104 69.6203C95.584 69.7609 95.4221 69.8703 95.2246 69.9484C95.0272 70.0251 94.8013 70.0635 94.5471 70.0635Z" fill="#9B6A63"/>
</svg>
