<svg width="56" height="56" viewBox="0 0 56 56" fill="none" xmlns="http://www.w3.org/2000/svg">
<rect width="56" height="56" rx="8" fill="#FFB2A3"/>
<path fill-rule="evenodd" clip-rule="evenodd" d="M17.6707 8.12934C17.1711 8.42036 17.1018 8.82539 17.1018 11.4544V13.9626L16.1519 14.0057C15.1329 14.0521 14.7868 14.2135 14.2953 14.8717C14.1073 15.1237 14.0387 15.4267 14.0057 16.1519L13.9626 17.1018H11.4544C8.09761 17.1018 8 17.1526 8 18.8995C8 19.8177 8.02048 19.8952 8.35006 20.2248L8.70012 20.5749H11.3441H13.988V21.8859V23.1969L11.2829 23.2332L8.5776 23.2695L8.28886 23.6055C8.03317 23.9029 8 24.0571 8 24.9461C8 25.8351 8.03317 25.9893 8.28886 26.2867L8.5776 26.6228L11.2829 26.659L13.988 26.6953V28.0063V29.3174H11.3441H8.70012L8.35006 29.6674C8.02048 29.997 8 30.0745 8 30.9927C8 32.7407 8.09593 32.7904 11.4671 32.7904H13.988V34.1078V35.4251H11.3441H8.70012L8.35006 35.7752C8.02527 36.1 8 36.1903 8 37.0249C8 38.8442 8.09952 38.8982 11.4544 38.8982H13.9626L14.0057 39.8481C14.0387 40.5733 14.1073 40.8763 14.2953 41.1283C14.7868 41.7865 15.1329 41.9479 16.1519 41.9943L17.1018 42.0374V44.5456C17.1018 47.8674 17.1737 48 18.9729 48C19.8099 48 19.8999 47.9748 20.2248 47.6499L20.5749 47.2999V44.6559V42.012H21.8922H23.2096V44.5329C23.2096 47.9022 23.2624 48 25.0829 48C25.9175 48 26.0078 47.9747 26.3326 47.6499L26.6826 47.2999V44.6559V42.012H27.9937H29.3047L29.341 44.7171L29.3772 47.4224L29.7133 47.7111C30.0028 47.96 30.1717 48 30.9331 48C32.7353 48 32.7904 47.8972 32.7904 44.5329V42.012H34.1078H35.4251V44.6559V47.2999L35.7752 47.6499C36.1001 47.9748 36.1901 48 37.0271 48C38.8263 48 38.8982 47.8674 38.8982 44.5456V42.0374L39.8481 41.9943C40.8671 41.9479 41.2132 41.7865 41.7047 41.1283C41.8927 40.8763 41.9613 40.5733 41.9943 39.8481L42.0374 38.8982H44.5456C47.8674 38.8982 48 38.8263 48 37.0271C48 36.1901 47.9748 36.1001 47.6499 35.7752L47.2999 35.4251H44.6559H42.012V34.1078V32.7904H44.5329C47.9041 32.7904 48 32.7407 48 30.9927C48 30.0745 47.9795 29.997 47.6499 29.6674L47.2999 29.3174H44.6559H42.012V28.0063V26.6953L44.7171 26.659L47.4224 26.6228L47.7111 26.2867C47.9668 25.9893 48 25.8351 48 24.9461C48 24.0571 47.9668 23.9029 47.7111 23.6055L47.4224 23.2695L44.7171 23.2332L42.012 23.1969V21.8859V20.5749H44.6559H47.2999L47.6499 20.2248C47.9747 19.9 48 19.8097 48 18.9751C48 17.1558 47.9005 17.1018 44.5456 17.1018H42.0374L41.9943 16.1519C41.9465 15.1013 41.769 14.7434 41.0551 14.2575C40.7332 14.0383 40.4946 13.988 39.7787 13.988H38.8982V11.4671C38.8982 8.09593 38.8485 8 37.1005 8C36.1823 8 36.1048 8.02048 35.7752 8.35006L35.4251 8.70012V11.3441V13.988H34.1141H32.8031L32.7668 11.2829L32.7305 8.5776L32.3945 8.28886C32.0963 8.03246 31.9438 8 31.038 8C30.0698 8 29.9995 8.01796 29.6674 8.35006L29.3174 8.70012V11.3441V13.988H28H26.6826V11.3441V8.70012L26.3326 8.35006C26.0005 8.01796 25.9302 8 24.962 8C24.0562 8 23.9037 8.03246 23.6055 8.28886L23.2695 8.5776L23.2332 11.2829L23.1969 13.988H21.8859H20.5749V11.3441V8.70012L20.2248 8.35006C19.8932 8.01844 19.8223 8.00024 18.8775 8.00359C18.329 8.00563 17.7859 8.06216 17.6707 8.12934ZM23.3869 21.6826C22.9339 22.9249 19.2559 32.9085 19.1944 33.0631C19.1151 33.2622 19.2272 33.2738 20.94 33.2428L22.7703 33.2096L23.0299 32.4311L23.2896 31.6527L25.1614 31.6198L27.0332 31.5868L27.2887 32.4281L27.5443 33.2695H29.3889C30.4035 33.2695 31.2335 33.2262 31.2335 33.1735C31.2335 33.0946 27.8636 23.7899 27.202 22.0419L27.0093 21.5329H25.2255C23.9073 21.5329 23.4273 21.572 23.3869 21.6826ZM31.9808 27.3713L32.012 33.2096L33.8383 33.2426L35.6647 33.2757V27.4043V21.5329H33.8072H31.9498L31.9808 27.3713ZM24.668 27.2091C24.3928 28.0915 24.1677 28.8729 24.1677 28.9456C24.1677 29.0325 24.5425 29.0778 25.2583 29.0778C26.1013 29.0778 26.3354 29.0426 26.2896 28.9229C26.2569 28.8377 26.0246 28.0563 25.7734 27.1863C25.5223 26.3165 25.2834 25.6048 25.2426 25.6048C25.2018 25.6048 24.9432 26.3267 24.668 27.2091Z" fill="white"/>
</svg>
